<?xml version="1.0" standalone="no"?>
<!DOCTYPE svg PUBLIC "-//W3C//DTD SVG 20010904//EN"
 "http://www.w3.org/TR/2001/REC-SVG-20010904/DTD/svg10.dtd">
<svg version="1.0" xmlns="http://www.w3.org/2000/svg"
 width="512.000000pt" height="512.000000pt" viewBox="0 0 512.000000 512.000000"
 preserveAspectRatio="xMidYMid meet">
<metadata>
Created by potrace 1.14, written by Peter Selinger 2001-2017
</metadata>
<g transform="translate(0.000000,512.000000) scale(0.100000,-0.100000)"
fill="#000000" stroke="none">
<path d="M2369 5116 c-2 -2 -38 -6 -79 -10 -206 -17 -475 -87 -725 -188 -99
-40 -322 -161 -430 -233 -380 -254 -671 -589 -872 -1005 -89 -183 -134 -303
-183 -494 -57 -225 -72 -339 -75 -581 -5 -362 37 -611 156 -932 44 -121 157
-356 200 -420 16 -23 29 -45 29 -48 0 -4 27 -46 60 -93 233 -340 548 -621 910
-811 206 -107 377 -172 605 -230 213 -53 324 -65 595 -65 265 0 383 12 575 61
55 14 111 27 124 29 13 3 32 9 41 14 9 5 28 11 41 14 29 5 180 63 264 101 833
372 1397 1149 1503 2070 14 124 5 605 -13 635 -1 3 -6 28 -9 55 -4 28 -14 77
-22 110 -9 33 -18 69 -20 80 -26 131 -127 396 -220 574 -147 282 -365 559
-589 746 -32 28 -70 59 -83 70 -94 80 -305 213 -437 276 -38 19 -71 37 -73 42
-2 4 -11 7 -21 7 -9 0 -21 4 -26 9 -27 24 -276 109 -445 151 -189 47 -315 62
-556 66 -121 2 -223 2 -225 0z"/>
</g>
</svg>
